# xmcd CD database file
#
# Track frame offsets:
#	150
#	23145
#	40560
#	62832
#	102088
#	112293
#	131832
#	150268
#	175702
#	187809
#	211380
#	231285
#	245283
#
# Disc length: 3537 seconds
#
# Revision: 0
# Processed by: cddbd v1.5.1PL0 Copyright (c) Steve Scherf et al.
# Submitted via: CDex 1.51
#
DISCID=a40dcf0d
DTITLE=Arthur H - Arthur H
DYEAR=1900
DGENRE=Jazz
TTITLE0=Quai #3
TTITLE1=Perfect stranger
TTITLE2=Andora
TTITLE3=Cool Jazz
TTITLE4=Don't make me laugh
TTITLE5=Je rêve de toi
TTITLE6=La lune
TTITLE7=Un fantôme s'est suicidé
TTITLE8=Scritch
TTITLE9=Marouchka
TTITLE10=John la reine des pommes
TTITLE11=Padam padam
TTITLE12=Loulou
EXTD=
EXTT0=
EXTT1=
EXTT2=
EXTT3=
EXTT4=
EXTT5=
EXTT6=
EXTT7=
EXTT8=
EXTT9=
EXTT10=
EXTT11=
EXTT12=
PLAYORDER=
